<svg 
          width="7.3333330154418945" 
          height="7.3333330154418945" fill="none" 
          xmlns="http://www.w3.org/2000/svg">
          <path d="M 7.3333330154418945 3.6666665077209473 C 7.333333015441893 4.63912696397837 6.947024774409421 5.571758093306151 6.259391433857786 6.259391433857786 C 5.571758093306151 6.947024774409421 4.63912696397837 7.333333015441893 3.6666665077209473 7.3333330154418945 C 2.6942060514635244 7.333333015441893 1.7615749221357433 6.947024774409421 1.0739415815841085 6.259391433857786 C 0.38630824103247363 5.571758093306151 2.442490548296226e-15 4.63912696397837 0 3.6666665077209473 C 8.14163516098742e-16 2.6942060514635244 0.38630824103247363 1.7615749221357433 1.0739415815841085 1.0739415815841085 C 1.7615749221357433 0.38630824103247363 2.6942060514635244 8.14163516098742e-16 3.6666665077209473 0 C 4.63912696397837 1.628327032197484e-15 5.571758093306151 0.38630824103247363 6.259391433857786 1.0739415815841085 C 6.947024774409421 1.7615749221357433 7.333333015441893 2.6942060514635244 7.3333330154418945 3.6666665077209473 Z M 5.499999761581421 3.6666665077209473 C 5.499999761581421 4.152896735849659 5.306845203964475 4.61921186341284 4.963028533688657 4.963028533688657 C 4.61921186341284 5.306845203964475 4.152896735849659 5.499999761581421 3.6666665077209473 5.499999761581421 C 3.180436279592236 5.499999761581421 2.7141211520290547 5.306845203964475 2.3703044817532373 4.963028533688657 C 2.02648781147742 4.61921186341284 1.8333332538604736 4.152896735849659 1.8333332538604736 3.6666665077209473 C 1.8333332538604736 3.180436279592236 2.02648781147742 2.7141207149283453 2.3703044817532373 2.370304044652528 C 2.7141211520290547 2.0264873743767104 3.180436279592236 1.8333332538604745 3.6666665077209473 1.8333332538604736 C 4.152896735849659 1.8333332538604745 4.61921186341284 2.0264873743767104 4.963028533688657 2.370304044652528 C 5.306845203964475 2.7141207149283453 5.499999761581423 3.180436279592236 5.499999761581421 3.6666665077209473 Z" fill="rgb(0,0,0)"/>
        </svg>