<svg 
          width="20.166667938232422" 
          height="20.166667938232422" fill="none" 
          xmlns="http://www.w3.org/2000/svg">
          <path d="M 10.083333969116211 0 C 4.51458379283097 0 0 4.51458379283097 0 10.083333969116211 C 0 15.652084145401453 4.51458379283097 20.166667938232422 10.083333969116211 20.166667938232422 C 15.652084145401453 20.166667938232422 20.166667938232422 15.652084145401453 20.166667938232422 10.083333969116211 C 20.166667938232422 4.51458379283097 15.652084145401453 0 10.083333969116211 0 Z M 1.8333334489302202 10.083333969116211 C 1.8333334489302202 11.999167344570155 2.486916768399148 13.762834035895079 3.582333552216038 15.163500788255162 C 4.3518218410162035 14.153450546994463 5.344308117239631 13.334879066923309 6.482336214622674 12.771668842068804 C 7.620364312005718 12.2084586172143 8.873148076919918 11.915845793320685 10.142916921557777 11.916667418046432 C 11.396348906892998 11.915205185826759 12.633562268680055 12.200003831930262 13.760202798619668 12.749344358061288 C 14.88684332855928 13.298684884192314 15.873154737041514 14.098058516600593 16.64391733845795 15.086501119093473 C 17.438161101757238 14.044803143976818 17.972934698821508 12.828948929177841 18.203987633612336 11.539541256851987 C 18.435040568403164 10.250133584526132 18.355730111457742 8.924240675003437 17.972621461492302 7.671569354258695 C 17.589512811526863 6.418898033513953 16.9136190499122 5.275460705001293 16.00086344837341 4.335867718062962 C 15.088107846834616 3.396274731124632 13.964731530702569 2.687538120230954 12.723684795286152 2.2682998418524054 C 11.482638059869736 1.849061563473857 10.159598981182398 1.7313740972600056 8.864038787891497 1.924975337763871 C 7.568478594600595 2.1185765782677364 6.3376422050167465 2.6179006756950995 5.273371909763972 3.381632620727859 C 4.209101614511197 4.145364565760619 3.341993592301916 5.1515482137345066 2.7437935612117395 6.3169298578722275 C 2.145593530121563 7.482311502009948 1.8334989898099572 8.773388243572258 1.8333334489302202 10.083333969116211 Z M 10.083333969116211 18.333334489302203 C 8.18941573281187 18.336404037044016 6.352632029064849 17.684851807829215 4.884000370892616 16.48900183695018 C 5.475076096762161 15.642563927024879 6.261927502802254 14.951481569793364 7.177569444545125 14.474588035263217 C 8.093211386287997 13.99769450073307 9.110527990514996 13.7491115486724 10.142916921557777 13.750000866976652 C 11.162411926677061 13.749109501896886 12.167404365815896 13.991499471719512 13.074403077211338 14.457035817308762 C 13.98140178860678 14.922572162898012 14.764222688576597 15.59781535467509 15.357834035931194 16.426667772350893 C 13.87784890417449 17.66142003833178 12.010757071113197 18.336350758132834 10.083333969116211 18.333334489302203 Z" fill="rgb(0,0,0)"/>
        </svg>