<svg 
          width="20" 
          height="20" fill="none" 
          xmlns="http://www.w3.org/2000/svg">
          <path d="M 10 0 C 4.480000019073486 0 0 4.480000019073486 0 10 C 0 15.519999980926514 4.480000019073486 20 10 20 C 15.519999980926514 20 20 15.519999980926514 20 10 C 20 4.480000019073486 15.519999980926514 0 10 0 Z M 10 4 C 11.929999947547913 4 13.5 5.570000052452087 13.5 7.5 C 13.5 9.429999947547913 11.929999947547913 11 10 11 C 8.070000052452087 11 6.5 9.429999947547913 6.5 7.5 C 6.5 5.570000052452087 8.070000052452087 4 10 4 Z M 10 18 C 7.9700000286102295 18 5.570000171661377 17.18000078201294 3.8600001335144043 15.120000839233398 C 5.6118234395980835 13.746217727661133 7.7737555503845215 12.999616622924803 10 12.999616622924805 C 12.226244449615479 12.999616622924801 14.388176083564758 13.746217727661133 16.139999389648438 15.120000839233398 C 14.429999351501465 17.18000078201294 12.02999997138977 18 10 18 Z" fill="rgb(0,0,0)"/>
        </svg>