<svg 
          width="21.000001907348633" 
          height="21.000015258789062" fill="none" 
          xmlns="http://www.w3.org/2000/svg">
          <path d="M 10.499999841054297 9.333333192048354 C 11.141666511915366 9.333333192048354 11.691166626263565 9.10505555198232 12.148499940713265 8.648499993695248 C 12.605833255162965 8.191944435408177 12.83411091682404 7.642444355829348 12.833333139066365 6.999999894036265 C 12.83255536130869 6.357555432243183 12.604277708068325 5.808444143822231 12.148499940713265 5.352666376467167 C 11.692722173358204 4.896888609112103 11.143222024240629 4.668222151539525 10.499999841054297 4.666666596024177 C 9.856777657867966 4.665111040508829 9.307666856218278 4.893777480153448 8.852666879795224 5.352666376467167 C 8.397666903372171 5.811555272780886 8.168999876451073 6.360666595971214 8.166666543042233 6.999999894036265 C 8.164333209633392 7.639333192101317 8.393000227318877 8.188833341218897 8.852666879795224 8.648499993695248 C 9.312333532271571 9.108166646171599 9.861444264382508 9.33644430307905 10.499999841054297 9.333333192048354 Z M 9.333333192048265 18.666666384096708 L 9.333333192048265 15.049999327129964 C 8.380555433329254 14.836110436842938 7.5300551307760815 14.432833035857751 6.7818329102375055 13.84016635924814 C 6.033610689698929 13.24749968263853 5.48411113166074 12.50355513837911 5.1333333668885475 11.608332935086136 C 3.6750000556310063 11.433332930781354 2.4550555274780925 10.796721761900827 1.47349999104606 9.69849953275268 C 0.4919444546140276 8.600277303604532 0.0007777777576738592 7.3118888423649695 0 5.8333332450302215 L 0 4.666666596024177 C 0 4.024999925163103 0.22866674414828886 3.475888636742151 0.6860000585979886 3.019333078455079 C 1.1433333730476885 2.562777520168007 1.6924444180830054 2.3341110757697625 2.3333332980120662 2.3333332980120884 L 4.6666665960241325 2.3333332980120884 C 4.6666665960241325 1.691666627151014 4.895333062017417 1.1425556168850672 5.352666376467116 0.6860000585979952 C 5.809999690916816 0.22944450031092306 6.359111014107138 0.0007777777576738666 6.999999894036199 0 L 13.999999788072397 0 C 14.641666458933466 0 15.191166573281665 0.22866674414829102 15.648499887731365 0.6860000585979952 C 16.105833202181064 1.1433333730476993 16.334110863842138 1.6924444180830216 16.333333086084465 2.3333332980120884 L 18.66666638409653 2.3333332980120884 C 19.308333054957597 2.3333332980120884 19.8578331693058 2.5619997640053747 20.315166483755497 3.019333078455079 C 20.772499798205196 3.476666392904783 21.000777459866267 4.02577771609511 20.999999682108594 4.666666596024177 L 20.999999682108594 5.8333332450302215 C 20.999999682108594 7.311110981894211 20.508832462116565 8.599499582211276 19.526499134752527 9.69849953275268 C 18.544165807388488 10.797499483294082 17.324222461394342 11.434110721713362 15.866666871530057 11.608332935086136 C 15.516666862920497 12.502777347447102 14.967555018189541 13.246721891706523 14.219332797650965 13.84016635924814 C 13.47111057711239 14.433610826789758 12.620222039711349 14.836888227774946 11.666666490060331 15.049999327129964 L 11.666666490060331 18.666666384096708 L 15.16666643707843 18.666666384096708 C 15.49722198531218 18.666666384096708 15.774498993780917 18.778666505067644 15.99849899233716 19.00266650362389 C 16.222498990893403 19.226666502180134 16.334110863842138 19.503555275801006 16.333333086084465 19.83333303310275 C 16.332555308326793 20.163110790404495 16.22055519156621 20.440387816257925 15.997332966557284 20.66516558836149 C 15.77411074154836 20.889943360465054 15.49722198531218 21.001555237624146 15.16666643707843 20.999999682108797 L 5.833333245030166 20.999999682108797 C 5.502777696796414 20.999999682108797 5.225888940560235 20.887999561137857 5.002666715551312 20.663999562581612 C 4.779444490542389 20.439999564025367 4.667444373781806 20.163110790404495 4.6666665960241325 19.83333303310275 C 4.665888818266459 19.503555275801006 4.777888943447749 19.226666502180134 5.002666715551312 19.00266650362389 C 5.227444487654875 18.778666505067644 5.504333243891054 18.666666384096708 5.833333245030166 18.666666384096708 L 9.333333192048265 18.666666384096708 Z M 4.6666665960241325 9.100000084771148 L 4.6666665960241325 4.666666596024177 L 2.3333332980120662 4.666666596024177 L 2.3333332980120662 5.8333332450302215 C 2.3333332980120662 6.572222113462216 2.5472223969153425 7.238389094373402 2.975000177489388 7.831833561915021 C 3.402777958063434 8.425278029456639 3.966666578805012 8.8480000820492 4.6666665960241325 9.100000084771148 Z M 10.499999841054297 12.833333139066486 C 11.472222025379741 12.833333139066486 12.298610948118183 12.493055343260139 12.97916647019212 11.812499821186197 C 13.659721992266055 11.131944299112256 13.999999788072397 10.305555376373807 13.999999788072397 9.333333192048354 L 13.999999788072397 2.3333332980120884 L 6.999999894036199 2.3333332980120884 L 6.999999894036199 9.333333192048354 C 6.999999894036199 10.305555376373807 7.340277689842542 11.131944299112256 8.020833211916477 11.812499821186197 C 8.701388733990413 12.493055343260139 9.527777656728853 12.833333139066486 10.499999841054297 12.833333139066486 Z M 16.333333086084465 9.100000084771148 C 17.033333103303587 8.84722230850188 17.59722283666518 8.424110891056745 18.025000617239225 7.830666423515127 C 18.452778397813272 7.237221955973508 18.66666638409653 6.571444322530208 18.66666638409653 5.8333332450302215 L 18.66666638409653 4.666666596024177 L 16.333333086084465 4.666666596024177 L 16.333333086084465 9.100000084771148 Z" fill="rgb(0,0,0)"/>
        </svg>