<svg 
          width="20" 
          height="20" fill="none" 
          xmlns="http://www.w3.org/2000/svg">
          <path d="M 16 0 C 15.100000023841858 0 14 1 14 2 L 6 2 C 6 1 4.899999976158142 0 4 0 L 0 0 L 0 9 C 0 10 1 11 2 11 L 4.199999809265137 11 C 4.599999815225601 13 5.900000095367432 14.699999988079071 9 15 L 9 17.079999923706055 C 6 17.539999932050705 6 20 6 20 L 14 20 C 14 20 14 17.539999932050705 11 17.079999923706055 L 11 15 C 14.099999904632568 14.699999988079071 15.399999231100082 13 15.799999237060547 11 L 18 11 C 19 11 20 10 20 9 L 20 0 L 16 0 Z M 4 9 L 2 9 L 2 2 L 4 2 L 4 9 Z M 14 9.5 C 14 11.429999947547913 13.420000076293945 13 10 13 C 6.5899999141693115 13 6 11.429999947547913 6 9.5 L 6 4 L 14 4 L 14 9.5 Z M 18 9 L 16 9 L 16 2 L 18 2 L 18 9 Z" fill="rgb(0,0,0)"/>
        </svg>