<svg 
          width="22.500001907348633" 
          height="20.25" fill="none" 
          xmlns="http://www.w3.org/2000/svg">
          <path d="M 20.25000171661377 2.25 L 16.68375132846832 2.25 L 14.625001239776612 0 L 7.8750006675720226 0 L 5.816250578880318 2.25 L 2.2500001907348635 2.25 C 1.0125000590085962 2.25 0 3.26249997317791 0 4.5 L 0 18 C 4.996004034329678e-16 18.59673712402582 0.23705281464110328 19.169032987207174 0.6590096913133948 19.59098982810974 C 1.0809665679856864 20.012946669012308 1.653263016123009 20.25 2.2500001907348635 20.25 L 20.25000171661377 20.25 C 21.498751838564875 20.25 22.500001907348633 19.248750016093254 22.500001907348633 18 L 22.500001907348633 4.5 C 22.500001907348633 3.9032628759741783 22.26294855626568 3.3309664763510227 21.84099167959339 2.909009635448456 C 21.4190348029211 2.487052794545889 20.846738891225623 2.2500000000000018 20.25000171661377 2.25 Z M 20.25000171661377 18 L 2.2500001907348635 18 L 2.2500001907348635 4.5 L 6.806250791549702 4.5 L 8.865000880241405 2.25 L 13.63500102710723 2.25 L 15.750001335144045 4.5 L 20.25000171661377 4.5 L 20.25000171661377 18 Z M 3.375000286102295 10.125 L 5.737500379085533 10.125 C 5.884690936317297 9.400806784629822 6.173223929387064 8.712740510702133 6.586592338538003 8.100166082382202 C 6.9999607476889425 7.487591654062271 7.530052130484973 6.962530564516783 8.146540021073179 6.555021643638611 C 8.763027911661386 6.147512722760439 9.453814071144064 5.865552817471325 10.179377822717198 5.725273847579956 C 10.904941574290332 5.584994877688587 11.651044477246582 5.589150231331587 12.37500104904175 5.737500429153442 C 13.230001110792161 5.906250435858965 13.983751193463803 6.2887500040233135 14.625001239776612 6.75 L 13.005001574516337 8.381249785423279 C 12.49875154501204 8.066249784082174 11.902500990211962 7.875 11.250000953674316 7.875 C 9.83250084424019 7.875 8.550001053363115 8.77499994635582 8.077501028060944 10.125 L 10.125000858306885 10.125 L 6.75000057220459 13.5 L 3.375000286102295 10.125 Z M 16.773751250267015 12.375 C 16.155001184403883 15.423750042915344 13.18500114989281 17.381249584257603 10.125000858306885 16.762499570846558 C 9.313638463381677 16.582459643483162 8.547846803482573 16.237853854894638 7.8750006675720226 15.75 L 9.495000332832298 14.118750214576721 C 10.012500386089048 14.433750215917826 10.608750907361507 14.625 11.250000953674316 14.625 C 12.678751053333281 14.625 13.961251112431283 13.72500005364418 14.433751137733454 12.375 L 12.37500104904175 12.375 L 15.750001335144045 9 L 19.12500162124634 12.375 L 16.773751250267015 12.375 Z" fill="rgb(255,255,255)"/>
        </svg>