<svg 
          width="17.5" 
          height="17.5" fill="none" 
          xmlns="http://www.w3.org/2000/svg">
          <path d="M 2.1875 0 L 15.3125 0 C 16.520000025629997 0 17.5 0.9799999743700027 17.5 2.1875 L 17.5 15.3125 C 17.500000000000004 15.892661064863205 17.26953238248825 16.4490607380867 16.859296560287476 16.859296560287476 C 16.4490607380867 17.26953238248825 15.892661064863205 17.500000000000004 15.3125 17.5 L 2.1875 17.5 C 1.607338935136795 17.500000000000004 1.0509397089481354 17.26953238248825 0.6407038867473602 16.859296560287476 C 0.23046806454658508 16.4490607380867 2.7755575615628914e-16 15.892661064863205 0 15.3125 L 0 2.1875 C 0 0.9799999743700027 0.9799999743700027 0 2.1875 0 Z M 1.875 2.1875 L 1.875 15.3125 C 1.875 15.484999995678663 2.0150000043213367 15.625 2.1875 15.625 L 15.3125 15.625 C 15.395380156114697 15.625 15.474865990690887 15.592076224274933 15.53347110748291 15.53347110748291 C 15.592076224274933 15.474865990690887 15.625 15.395380156114697 15.625 15.3125 L 15.625 2.1875 C 15.625 2.1046198438853025 15.592076224274933 2.025134307332337 15.53347110748291 1.9665291905403137 C 15.474865990690887 1.9079240737482905 15.395380156114697 1.875 15.3125 1.875 L 2.1875 1.875 C 2.1046198438853025 1.875 2.025134307332337 1.9079240737482905 1.9665291905403137 1.9665291905403137 C 1.9079240737482905 2.025134307332337 1.875 2.1046198438853025 1.875 2.1875 Z M 13.47499966621399 6.600000262260437 L 7.850000262260437 12.22499966621399 C 7.674218565225601 12.40056274458766 7.435938324779272 12.49917507171631 7.1875 12.499175071716309 C 6.939061675220728 12.49917507171631 6.700781434774399 12.40056274458766 6.524999737739563 12.22499966621399 L 4.024999737739563 9.72499966621399 C 3.8591967709362507 9.547317530959845 3.768871268548537 9.312192741781473 3.7730687856674194 9.06920313835144 C 3.777266302786302 8.826213534921408 3.875658940523863 8.594349399209023 4.047499895095825 8.422499895095825 C 4.2193493992090225 8.250658940523863 4.4512141309678555 8.152266302786302 4.694203734397888 8.14806878566742 C 4.937193337827921 8.143871268548537 5.172318127006292 8.23419677093625 5.350000262260437 8.399999737739563 L 7.1875 10.237499475479126 L 12.15000033378601 5.274999737739563 C 12.327682469040155 5.109196770936251 12.562807258218527 5.018871268548537 12.80579686164856 5.023068785667419 C 13.048786465078592 5.027266302786302 13.280650600790977 5.125658940523863 13.452500104904175 5.297499895095825 C 13.624341059476137 5.4693493992090225 13.72273310116725 5.7012141309678555 13.726930618286133 5.944203734397888 C 13.731128135405015 6.187193337827921 13.640802633017302 6.422318127006292 13.47499966621399 6.600000262260437 Z" fill="rgb(0,0,0)"/>
        </svg>