<svg 
          width="25.508525848388672" 
          height="25.44475555419922" fill="none" 
          xmlns="http://www.w3.org/2000/svg">
          <path d="M 25.508525848388672 12.754262947932922 C 25.508525848388672 5.713909825000775 19.794616034022784 0 12.754262924194336 0 C 5.713909814365889 0 0 5.713909825000775 0 12.754262947932922 C 0 18.927326409347064 4.387466518903329 24.067293200553824 10.203410339355468 25.253439663834143 L 10.203410339355468 16.580541832312797 L 7.652557754516601 16.580541832312797 L 7.652557754516601 12.754262947932922 L 10.203410339355468 12.754262947932922 L 10.203410339355468 9.565697210949692 C 10.203410339355468 7.104124528897409 12.20582968535275 5.101705179173169 14.667402362823486 5.101705179173169 L 17.855968093872068 5.101705179173169 L 17.855968093872068 8.927984063553046 L 15.305115509033202 8.927984063553046 C 14.603631032998248 8.927984063553046 14.029689216613768 9.50192588100576 14.029689216613768 10.203410358346337 L 14.029689216613768 12.754262947932922 L 17.855968093872068 12.754262947932922 L 17.855968093872068 16.580541832312797 L 14.029689216613768 16.580541832312797 L 14.029689216613768 25.44475555419922 C 20.47059223660017 24.807042406802573 25.508525848388672 19.373725490890585 25.508525848388672 12.754262947932922 Z" fill="rgb(0,0,0)"/>
        </svg>