<svg 
          width="24.23310089111328" 
          height="24.233137130737305" fill="none" 
          xmlns="http://www.w3.org/2000/svg">
          <path d="M 12.116552878239125 3.826325573556199 C 10.559092535396971 3.8266717413799345 9.033227720626316 4.2657352727531554 7.713772821805445 5.093214423106439 C 6.394317922984573 5.920693573459723 5.334642116744942 7.103117246845369 4.656149714859103 8.50501998646603 C 3.977657312973263 9.906922726086691 3.707791767654915 11.471599610368804 3.8774711619195026 13.019789595795427 C 4.04715055618409 14.56797958122205 4.649511152421736 16.037060625648884 5.6155428229588535 17.258725827710958 C 6.581574493495971 18.48039102977303 7.8722026370198215 19.405226141939256 9.339563718667957 19.92727414861146 C 10.806924800316093 20.449322155283664 12.39166782926929 20.547468472900725 13.912231372777336 20.210467607546196 C 15.432794916285383 19.873466742191667 16.827675971785833 19.114950307418578 17.937066837500588 18.021819469023562 C 19.046457703215342 16.928688630628546 19.825485536144846 15.545158423044292 20.184899511122364 14.02973606546949 L 13.391979112893377 14.02973606546949 C 12.884583009782268 14.029736065469487 12.397968286851917 13.828173973423896 12.039185060829942 13.469390715095335 C 11.680401834807967 13.110607456766774 11.478839760912 12.623992690019268 11.478839760911999 12.116596541219748 C 11.478839760911999 11.609200392420227 11.680401834807967 11.122585625672722 12.039185060829942 10.76380236734416 C 12.397968286851917 10.4050191090156 12.884583009782268 10.203457016970006 13.391979112893377 10.203457016970004 L 22.319961539131903 10.203457016970004 C 22.827357642243012 10.203457016970006 23.31397114883212 10.4050191090156 23.672754374854097 10.76380236734416 C 24.031537600876074 11.122585625672722 24.23310089111328 11.609200392420227 24.23310089111328 12.116596541219748 C 24.23309438925746 14.918392016376913 23.26209734972628 17.63359812724091 21.485398187807455 19.800022949049414 C 19.70869902588863 21.96644777085792 17.236113706295455 23.45018850335489 14.48853020443139 23.99867760441123 C 11.740946702567324 24.54716670546757 8.888189974534084 24.12650261300608 6.41586738464928 22.80829297687684 C 3.9435447947644753 21.4900833407476 2.0044656734250568 19.355803836146706 0.9287068711283192 16.76875920430405 C -0.1470519311684183 14.181714572461395 -0.29299953852067406 11.301805351594364 0.5157075908848245 8.619259982585884 C 1.3244147202903231 5.936714613577404 3.0377914232013006 3.6173372994393915 5.364181648010044 2.055938911228886 C 7.690571872818788 0.49454052301838036 10.486185497451856 -0.2123707436173441 13.275142238507593 0.05553813187766994 C 16.06409897956333 0.32344700737268395 18.674017587776337 1.549616753832502 20.660631248849786 3.525324877228393 C 20.838758304091247 3.7025307599884885 20.980237957466638 3.913086137894661 21.076992154191466 4.144969301194559 C 21.173746350916293 4.376852464494457 21.223880525696153 4.6255221267291065 21.224531914219437 4.87678046744612 C 21.22518330274272 5.128038808163134 21.176340160605175 5.376964966380384 21.080789571550426 5.609346677591927 C 20.985238982495677 5.84172838880347 20.844852971939915 6.053014521787515 20.667647105136297 6.231141593068403 C 20.49044123833268 6.409268664349292 20.279885879385933 6.550748330464197 20.04800273696592 6.647502535901244 C 19.816119594545906 6.74425674133829 19.567451779214544 6.794390920632476 19.31619346112205 6.795042309214413 C 18.808754367950154 6.796357847865899 18.32157537671529 6.596039665448067 17.961831545197082 6.238156233645305 C 16.41014182929447 4.691165408749071 14.307651747288817 3.823653703680268 12.116552878239125 3.826325573556199 Z" fill="rgb(0,0,0)"/>
        </svg>