<svg 
          width="22.666671752929688" 
          height="24.791671752929688" fill="none" 
          xmlns="http://www.w3.org/2000/svg">
          <path d="M 2.833333293596913 21.958333051772406 L 7.083333233992283 21.958333051772406 L 7.083333233992283 14.87499980926518 C 7.083333233992283 14.473610928337768 7.2193333810369404 14.13738886641542 7.491333379586561 13.866333306848473 C 7.763333378136182 13.595277747281525 8.099555460764329 13.459277605185951 8.499999880790739 13.458333160763733 L 14.166666467984566 13.458333160763733 C 14.568055348429464 13.458333160763733 14.904750210126286 13.594333307971878 15.176750208675907 13.866333306848473 C 15.448750207225528 14.138333305725068 15.584277559204105 14.474555388757391 15.583333114783022 14.87499980926518 L 15.583333114783022 21.958333051772406 L 19.833333055178393 21.958333051772406 L 19.833333055178393 9.208333215259398 L 11.333333174387652 2.8333332970028913 L 2.833333293596913 9.208333215259398 L 2.833333293596913 21.958333051772406 Z M 0 21.958333051772406 L 0 9.208333215259398 C 0 8.759722115529934 0.10058307134112124 8.334722652950946 0.3017497417728152 7.933333772023534 C 0.5029164122045092 7.5319448910961215 0.7801113652553813 7.201388261762904 1.1333335876464845 6.941666037241645 L 9.633333468437224 0.566666794504438 C 10.129166786372693 0.18888900186807295 10.69583320021633 0 11.333333174387652 0 C 11.970833148558976 0 12.537499562402612 0.18888900186807295 13.033332880338081 0.566666794504438 L 21.533334112167417 6.941666037241645 C 21.887500773867032 7.201388261762904 22.16516650053866 7.5319448910961215 22.366333170970353 7.933333772023534 C 22.567499841402046 8.334722652950946 22.66761079319639 8.759722115529934 22.666666348775305 9.208333215259398 L 22.666666348775305 21.958333051772406 C 22.666666348775305 22.737499725336185 22.389000600993697 23.40474986573237 21.833667289972368 23.96008317742127 C 21.27833397895104 24.515416489110173 20.611555267387036 24.792610793197518 19.833333055178393 24.791666348775298 L 14.166666467984566 24.791666348775298 C 13.765277587539668 24.791666348775298 13.429055526021498 24.655666201567154 13.157999966780388 24.38366620269056 C 12.886944407539277 24.111666203813964 12.750944265607192 23.775444120781643 12.749999821186108 23.374999700273854 L 12.749999821186108 16.291666457766624 L 9.916666527589197 16.291666457766624 L 9.916666527589197 23.374999700273854 C 9.916666527589197 23.776388581201267 9.780666380544538 24.113082092264232 9.508666381994917 24.385082091140827 C 9.236666383445296 24.657082090017422 8.90044430081715 24.792610793197518 8.499999880790739 24.791666348775298 L 2.833333293596913 24.791666348775298 C 2.0541666209697795 24.791666348775298 1.3873886271450335 24.514472070910504 0.8329997343222364 23.96008317742127 C 0.27861084149943927 23.40569428393204 0.0009444444210837732 22.73844418575581 0 21.958333051772406 Z" fill="rgb(0,0,0)"/>
        </svg>