<svg 
          width="18.333349227905273" 
          height="18.333349227905273" fill="none" 
          xmlns="http://www.w3.org/2000/svg">
          <path d="M 9.16665297746588 0 C 4.104074700986401 0 0 4.104031755838444 0 9.16665297746588 C 0 14.229231253945358 4.104074700986401 18.333349227905273 9.16665297746588 18.333349227905273 C 14.229317144241271 18.333349227905273 18.333349227905273 14.229274199093314 18.333349227905273 9.16665297746588 C 18.333349227905273 4.104031755838444 14.229317144241271 0 9.16665297746588 0 Z M 9.16665297746588 16.500000536441355 C 5.123078483009579 16.500000536441355 1.8333477079872473 13.210270417070138 1.8333477079872473 9.16665297746588 C 1.8333477079872473 5.123035537861622 5.123035537861622 1.8333477079872473 9.16665297746588 1.8333477079872473 C 13.210313362218095 1.8333477079872473 16.500000536441355 5.123035537861622 16.500000536441355 9.16665297746588 C 16.500000536441355 13.210270417070138 13.210313362218095 16.500000536441355 9.16665297746588 16.500000536441355 Z M 10.31451974070649 5.500000178813785 C 10.31451974070649 6.164640843124894 9.830606560387873 6.645847536623752 9.175977647606992 6.645847536623752 C 8.494879976425581 6.645847536623752 8.022825025086556 6.164597938955131 8.022825025086556 5.487281530681852 C 8.022825025086556 4.836304963408842 8.507641692640055 4.354195766151775 9.175977647606992 4.354195766151775 C 9.830606560387873 4.354195766151775 10.31451974070649 4.836304840474258 10.31451974070649 5.500000178813785 Z M 8.252019673651322 8.250000268220678 L 10.085325092141726 8.250000268220678 L 10.085325092141726 13.750000447034463 L 8.252019673651322 13.750000447034463 L 8.252019673651322 8.250000268220678 Z" fill="rgb(0,0,0)"/>
        </svg>