<svg 
          width="14.002044677734375" 
          height="14.000198364257812" fill="none" 
          xmlns="http://www.w3.org/2000/svg">
          <path d="M 0.1840444803237915 0.18311652541160583 C 0.24208324775099754 0.12506245076656342 0.3109900504350662 0.07901055738329887 0.38682928681373596 0.047591060400009155 C 0.4626685231924057 0.016171563416719437 0.5439544767141342 1.734723475976807e-18 0.626044511795044 0 C 0.7081345468759537 5.204170427930421e-18 0.7894204705953598 0.016171563416719437 0.8652597069740295 0.047591060400009155 C 0.9410989433526993 0.07901055738329887 1.0100057758390903 0.12506245076656342 1.0680445432662964 0.18311652541160583 L 3.5440444946289062 2.660116672515869 C 4.53704446554184 1.986116647720337 5.7140443325042725 1.4701166152954102 7.001044273376465 1.4701166152954102 C 8.57504427433014 1.4701166152954102 9.984044671058655 2.24111670255661 11.09404468536377 3.1301167011260986 C 12.212044715881348 4.024116694927216 13.094043850898743 5.091116189956665 13.625043869018555 5.805116176605225 L 13.630043983459473 5.8121161460876465 C 13.878043979406357 6.154116153717041 14.002044677734375 6.578116357326508 14.002044677734375 7.000116348266602 C 14.002044677734375 7.423116356134415 13.878043979406357 7.846116065979004 13.630043983459473 8.188116073608398 L 13.625043869018555 8.19511604309082 C 13.152043879032135 8.830116033554077 12.402044773101807 9.74511605501175 11.455044746398926 10.57011604309082 L 13.818044662475586 12.93311595916748 C 13.876088932156563 12.991160225123167 13.922132235020399 13.060069635510445 13.953545570373535 13.135908126831055 C 13.984958905726671 13.211746618151665 14.001126287749546 13.293029353022575 14.001126289367676 13.375116348266602 C 14.001126290985805 13.457203343510628 13.984958902001381 13.538486078381538 13.953545570373535 13.614324569702148 C 13.92213223874569 13.690163061022758 13.876088932156563 13.759072467684746 13.818044662475586 13.817116737365723 C 13.760000392794609 13.8751610070467 13.691090986132622 13.921204313635826 13.615252494812012 13.952617645263672 C 13.539414003491402 13.984030976891518 13.458131268620491 14.000198365875942 13.376044273376465 14.000198364257812 C 13.293957278132439 14.000198362639683 13.212674543261528 13.984030980616808 13.136836051940918 13.952617645263672 C 13.060997560620308 13.921204309910536 12.99208815023303 13.8751610070467 12.934043884277344 13.817116737365723 L 0.1840444803237915 1.067116618156433 C 0.12599040567874908 1.009077850729227 0.07993851229548454 0.9401709586381912 0.048519015312194824 0.8643317222595215 C 0.017099518328905106 0.7884924858808517 0.0009279537480324142 0.7072065621614456 0.0009279537480324507 0.6251165270805359 C 0.0009279537480323067 0.5430264919996262 0.017099518328905106 0.46174056828022003 0.048519015312194824 0.3859013319015503 C 0.07993851229548454 0.31006209552288055 0.12599040567874908 0.24115529283881187 0.1840444803237915 0.18311652541160583 Z M 5.731044292449951 4.846116542816162 L 4.447044372558594 3.5621166229248047 C 5.251044392585754 3.052116632461548 6.117044270038605 2.72011661529541 7.001044273376465 2.72011661529541 C 8.169044256210327 2.72011661529541 9.305044531822205 3.299116373062134 10.313044548034668 4.105116367340088 C 11.312044560909271 4.905116379261017 12.119044721126556 5.876116216182709 12.620044708251953 6.548116207122803 C 12.708040930330753 6.682241320610046 12.753682364709675 6.839723318815231 12.751044273376465 7.000116348266602 C 12.753587488317862 7.160953044891357 12.707586258649826 7.318821087479591 12.619044303894043 7.453116416931152 C 12.162044316530228 8.066116392612457 11.449044644832611 8.930115938186646 10.568044662475586 9.68311595916748 L 9.155044555664062 8.270116806030273 C 9.43710795044899 7.792605966329575 9.552384436130524 7.234859585762024 9.482731819152832 6.68465518951416 C 9.41307920217514 6.134450793266296 9.162451595067978 5.623025745153427 8.770293235778809 5.230867385864258 C 8.37813487648964 4.8387090265750885 7.86670982837677 4.588081896305084 7.316505432128906 4.518429279327393 C 6.7663010358810425 4.448776662349701 6.20855513215065 4.564053148031235 5.731044292449951 4.846116542816162 Z M 2.193044424057007 5.548116207122803 C 2.2492521330714226 5.486897479742765 2.2926858197897673 5.415083333849907 2.3208041191101074 5.336875915527344 C 2.3489224184304476 5.258668497204781 2.361160567961633 5.1756384670734406 2.356802463531494 5.092644214630127 C 2.352444359101355 5.009649962186813 2.331577591598034 4.928358510136604 2.2954230308532715 4.8535261154174805 C 2.259268470108509 4.778693720698357 2.2085523530840874 4.711823645979166 2.146242141723633 4.6568284034729 C 2.0839319303631783 4.601833160966635 2.0112792029976845 4.559817148372531 1.93253493309021 4.533239364624023 C 1.8537906631827354 4.506661580875516 1.770536370575428 4.496055971831083 1.6876436471939087 4.502042293548584 C 1.6047509238123894 4.508028615266085 1.5238846093416214 4.5304868668317795 1.449776291847229 4.568103313446045 C 1.3756679743528366 4.60571976006031 1.3098060972988605 4.657738856971264 1.2560445070266724 4.721116542816162 C 0.9050444960594177 5.119116544723511 0.6090444624423981 5.494116187095642 0.3770444691181183 5.805116176605225 L 0.37204447388648987 5.8121161460876465 C 0.1272953301668167 6.159685105085373 -0.002762077550869435 6.575029939413071 0.0000444849138148129 7.000116348266602 C 0.00004448491381503581 7.423116356134415 0.12504447996616364 7.846116065979004 0.37204447388648987 8.188116073608398 L 0.3770444691181183 8.19511604309082 C 0.909044474363327 8.90911602973938 1.7900444269180298 9.977116644382477 2.9070444107055664 10.871116638183594 C 4.017044425010681 11.759116649627686 5.4270442724227905 12.531116485595703 7.001044273376465 12.531116485595703 C 7.51304429769516 12.531116485595703 8.007044523954391 12.449116364121437 8.478044509887695 12.30911636352539 C 8.556771971285343 12.285741072148085 8.630124107003212 12.247088599950075 8.693913459777832 12.195364952087402 C 8.757702812552452 12.14364130422473 8.810680240392685 12.079859368503094 8.849820137023926 12.007661819458008 C 8.888960033655167 11.935464270412922 8.913495846092701 11.856264799833298 8.922027587890625 11.774584770202637 C 8.930559329688549 11.692904740571976 8.922920009121299 11.610343672335148 8.899544715881348 11.5316162109375 C 8.876169422641397 11.452888749539852 8.837516002357006 11.379536613821983 8.785792350769043 11.315747261047363 C 8.73406869918108 11.251957908272743 8.670287728309631 11.19898047670722 8.598090171813965 11.15984058380127 C 8.525892615318298 11.120700690895319 8.446692198514938 11.096164871007204 8.365012168884277 11.08763313293457 C 8.283332139253616 11.079101394861937 8.200772024691105 11.086740707978606 8.122044563293457 11.110116004943848 C 7.758666545152664 11.219628743827343 7.381551891565323 11.276869382942095 7.002044200897217 11.280116081237793 C 5.833044171333313 11.280116081237795 4.697044491767883 10.702116787433624 3.68904447555542 9.895116806030273 C 2.6900444626808167 9.095116794109344 1.8830444812774658 8.125116407871246 1.3830444812774658 7.453116416931152 C 1.3050444796681404 7.343116417527199 1.2500444650650024 7.1831163465976715 1.2500444650650024 7.000116348266602 C 1.2500444650650024 6.817116349935532 1.3050444796681404 6.657116204500198 1.3830444812774658 6.548116207122803 C 1.5970444828271866 6.260116219520569 1.8710444271564484 5.914116203784943 2.193044424057007 5.548116207122803 Z" fill="rgb(0,0,0)"/>
        </svg>