<svg 
          width="7.656573295593262" 
          height="13.301498413085938" fill="none" 
          xmlns="http://www.w3.org/2000/svg">
          <path d="M 0.2927865982055664 0.29278647899627686 C 0.10531553626060486 0.480314165353775 0 0.7346222102642059 0 0.999786376953125 C 0 1.264950543642044 0.10531553626060486 1.5192587077617645 0.2927865982055664 1.7067863941192627 L 5.242786407470703 6.6567864418029785 L 0.2927865982055664 11.606786727905273 C 0.11062853038311005 11.795388892292976 0.009833721444010735 12.047991514205933 0.012112140655517578 12.310188293457031 C 0.014390559867024422 12.57238507270813 0.11955976486206055 12.823197841644287 0.30496788024902344 13.00860595703125 C 0.49037599563598633 13.194014072418213 0.7411882877349854 13.299181846901774 1.003385066986084 13.301460266113281 C 1.2655818462371826 13.303738685324788 1.5181839913129807 13.202944353222847 1.7067861557006836 13.02078628540039 L 7.363786697387695 7.363786220550537 C 7.551257759332657 7.176258534193039 7.656573295593262 6.921950608491898 7.656573295593262 6.6567864418029785 C 7.656573295593262 6.3916222751140594 7.551257759332657 6.137314349412918 7.363786697387695 5.94978666305542 L 1.7067861557006836 0.29278647899627686 C 1.5192584693431854 0.10531541705131531 1.264950543642044 0 0.999786376953125 0 C 0.7346222102642059 0 0.4803142845630646 0.10531541705131531 0.2927865982055664 0.29278647899627686 Z" fill="rgb(0,0,0)"/>
        </svg>