<svg 
          width="13.333334922790527" 
          height="18.375001907348633" fill="none" 
          xmlns="http://www.w3.org/2000/svg">
          <path d="M 1.6666666666666667 18.375000238418558 C 1.208333323399226 18.375000238418558 0.8161109685897827 18.203792003555883 0.4899998505910238 17.861375325214276 C 0.16388873259226483 17.51895864687267 0.0005555555496054392 17.10683357560254 0 16.625000215712028 L 0 7.87500093664442 C 0 7.393750919969311 0.16333319246768951 6.98191744207579 0.4899998505910238 6.6395007637341825 C 0.8166665087143581 6.297084085392575 1.2088888883590698 6.125583830040026 1.6666666666666667 6.125000496705371 L 2.5 6.125000496705371 L 2.5 4.375000473998842 C 2.5 3.164583798580701 2.906389137109121 2.132959028441761 3.7191669146219892 1.2801256941954369 C 4.531944692134857 0.42729235994911285 5.514444410800934 0.0005839306042312176 6.666666666666667 5.972695766634843e-7 C 7.8188889225324 -0.0005827360650778906 8.801666746536892 0.42612567351830266 9.615000089009603 1.2801256941954369 C 10.428333431482315 2.134125714872571 10.834444444432545 3.1657504850115115 10.833333333333334 4.375000473998842 L 10.833333333333334 6.125000496705371 L 11.666666666666668 6.125000496705371 C 12.125000009934109 6.125000496705371 12.517500097552935 6.296500768254202 12.84416675567627 6.6395007637341825 C 13.170833413799604 6.9825007592141635 13.333888888882939 7.394334263184716 13.333333333333334 7.87500093664442 L 13.333333333333334 16.625000215712028 C 13.333333333333334 17.106250232387136 13.170277873675028 17.518375329734294 12.84416675567627 17.861375325214276 C 12.518055637677511 18.204375320694258 12.125555574893953 18.37558357175321 11.666666666666668 18.375000238418558 L 1.6666666666666667 18.375000238418558 Z M 1.6666666666666667 16.625000215712028 L 11.666666666666668 16.625000215712028 L 11.666666666666668 7.87500093664442 L 1.6666666666666667 7.87500093664442 L 1.6666666666666667 16.625000215712028 Z M 6.666666666666667 14.000000181652235 C 7.125000009934108 14.000000181652235 7.517500097552936 13.828792781254599 7.8441667556762695 13.48637610291299 C 8.170833413799604 13.143959424571381 8.333888888882939 12.731834353301256 8.333333333333334 12.250000993410742 C 8.332777777783729 11.768167633520228 8.169722308715185 11.356334572859229 7.8441667556762695 11.014501237733025 C 7.518611202637355 10.672667902606822 7.126111090183258 10.501167637373523 6.666666666666667 10.500000970704214 C 6.207222243150076 10.498834304034904 5.815000236034393 10.670334555822235 5.490000247955322 11.014501237733025 C 5.165000259876251 11.358667919643816 5.001666666745829 11.77050100638185 5 12.250000993410742 C 4.998333333254171 12.729500980439635 5.1616669197877245 13.141626103863826 5.490000247955322 13.48637610291299 C 5.81833357612292 13.831126101962154 6.210555533568065 14.002333514990854 6.666666666666667 14.000000181652235 Z M 4.166666666666667 6.125000496705371 L 9.166666666666668 6.125000496705371 L 9.166666666666668 4.375000473998842 C 9.166666666666668 3.6458338152558096 8.923611094554266 3.02604231439413 8.4375 2.515625658489414 C 7.951388905445735 2.005209002584698 7.361111094554266 1.7500006485553077 6.666666666666667 1.7500006485553077 C 5.972222238779068 1.7500006485553077 5.381944427887599 2.005209002584698 4.895833333333334 2.515625658489414 C 4.409722238779069 3.02604231439413 4.166666666666667 3.6458338152558096 4.166666666666667 4.375000473998842 L 4.166666666666667 6.125000496705371 Z" fill="rgb(0,0,0)"/>
        </svg>