<svg 
          width="20.979000091552734" 
          height="22.773595809936523" fill="none" 
          xmlns="http://www.w3.org/2000/svg">
          <path d="M 14.969898870841478 12.372407933844867 C 16.693417768650143 13.185998261393923 18.16299049336197 14.453354825212504 19.22104595093825 16.038588382846093 C 20.27910140851453 17.623821940479683 20.885734776837673 19.46714447966197 20.9758992194777 21.370908469394347 C 20.987910141687586 21.545293201119716 20.964967069056595 21.720320992469873 20.908416031988978 21.88571832705157 C 20.85186499492136 22.05111566163327 20.762845783831867 22.203549894675728 20.646582599676787 22.334076395368804 C 20.530319415521706 22.46460289606188 20.389153864981882 22.570591587048042 20.231372824755447 22.645820853418986 C 20.07359178452901 22.72105011978993 19.902373849286022 22.764004646366807 19.727766499604655 22.772163867920458 C 19.55315914992329 22.78032308947411 19.378681103207004 22.75352297495 19.214572171186333 22.693335293043003 C 19.050463239165662 22.633147611136007 18.90002914204354 22.540784195778787 18.7721004235278 22.42166852214179 C 18.64417170501206 22.302552848504792 18.54132545390524 22.159084173091166 18.46959683427453 21.999681218155395 C 18.397868214643818 21.840278263219624 18.35870248244642 21.668152832563255 18.35439893600795 21.493407937901644 C 18.258997684166474 19.47132848739423 17.38857522996813 17.563646684278737 15.923817577132239 16.166366677223806 C 14.459059924296348 14.769086670168875 12.512476735455667 13.989536101478352 10.488148212417498 13.989536101478356 C 8.463819689379328 13.989536101478352 6.517236917771165 14.769086670168875 5.052479264935275 16.166366677223806 C 3.5877216120993856 17.563646684278737 2.717299783749819 19.47132848739423 2.621898531908342 21.493407937901644 C 2.5983244056874124 21.835677075119264 2.441670017125937 22.155110580935244 2.1854824970185205 22.383303157263782 C 1.929294976911104 22.61149573359232 1.593941524112929 22.73030634995248 1.2512354694944103 22.714292048166246 C 0.9085294148758916 22.698277746380015 0.5857170849547884 22.548710740119308 0.3519258762658 22.29762195544231 C 0.11813466757681165 22.04653317076531 -0.008048377636959094 21.713884502812643 0.0003982966709162913 21.370908469394347 C 0.09040024028363414 19.467329522285553 0.6967708994657467 17.624134656255045 1.754506339700592 16.038918831003645 C 2.8122417799354373 14.453703005752246 4.281457353611708 13.186241038567758 6.0046489325098715 12.372407933844867 C 4.900419708153464 11.45136223868611 4.10671182173573 10.212526594847278 3.7314894027394865 8.82441443800185 C 3.356266983743243 7.436302281156424 3.4177454129845364 5.966301253191602 3.907562359872021 4.614366806802348 C 4.397379306759506 3.262432360413093 5.291755855617669 2.094196214417078 6.469034566487699 1.2685679462926167 C 7.646313277357729 0.44293967816815516 9.049341274822321 -1.5543122670196557e-15 10.487272858594379 0 C 11.925204442366436 -2.3314684005294837e-15 13.328233691528585 0.44293967816815516 14.505512402398614 1.2685679462926167 C 15.682791113268642 2.094196214417078 16.57716933105688 3.262432360413093 17.066986277944363 4.614366806802348 C 17.556803224831846 5.966301253191602 17.618280819608106 7.436302281156424 17.24305840061186 8.82441443800185 C 16.867835981615617 10.212526594847278 16.074128095197885 11.45136223868611 14.969898870841478 12.372407933844867 Z M 14.863149096602793 6.994658318585849 C 14.863149096602793 5.834336134762107 14.402212098003893 4.721537778294129 13.581740414475664 3.90106608691109 C 12.761268730947435 3.080594395528051 11.648470385132862 2.6196582269814037 10.488148212417498 2.6196582269814037 C 9.327826039702133 2.6196582269814037 8.215027693887562 3.080594395528051 7.394556010359332 3.90106608691109 C 6.574084326831102 4.721537778294129 6.11314857992976 5.834336134762107 6.113148579929758 6.994658318585849 C 6.113148579929762 8.154980502409591 6.574084326831102 9.267778441645047 7.394556010359332 10.088250133028087 C 8.215027693887562 10.908721824411126 9.327826039702133 11.36965799295777 10.488148212417498 11.369657992957771 C 11.648470385132862 11.36965799295777 12.761268730947435 10.908721824411126 13.581740414475664 10.088250133028087 C 14.402212098003893 9.267778441645047 14.863149096602793 8.154980502409591 14.863149096602793 6.994658318585849 Z" fill="rgb(0,0,0)"/>
        </svg>