<svg 
          width="37.52083206176758" 
          height="37.5" fill="none" 
          xmlns="http://www.w3.org/2000/svg">
          <path d="M 0 16.666666666666668 L 16.66666589003018 16.666666666666668 L 16.66666589003018 0 L 0 0 L 0 16.666666666666668 Z M 4.166666472507545 4.166666666666667 L 12.499999417522636 4.166666666666667 L 12.499999417522636 12.5 L 4.166666472507545 12.5 L 4.166666472507545 4.166666666666667 Z M 0 37.5 L 16.66666589003018 37.5 L 16.66666589003018 20.833333333333336 L 0 20.833333333333336 L 0 37.5 Z M 4.166666472507545 25 L 12.499999417522636 25 L 12.499999417522636 33.333333333333336 L 4.166666472507545 33.333333333333336 L 4.166666472507545 25 Z M 20.833332362537725 0 L 20.833332362537725 16.666666666666668 L 37.499998252567906 16.666666666666668 L 37.499998252567906 0 L 20.833332362537725 0 Z M 33.33333178006036 12.5 L 24.99999883504527 12.5 L 24.99999883504527 4.166666666666667 L 33.33333178006036 4.166666666666667 L 33.33333178006036 12.5 Z M 20.8541661717374 20.833333333333336 L 25.020832644244944 20.833333333333336 L 25.020832644244944 25 L 20.8541661717374 25 L 20.8541661717374 20.833333333333336 Z M 25.020832644244944 25 L 29.18749911675249 25 L 29.18749911675249 29.166666666666668 L 25.020832644244944 29.166666666666668 L 25.020832644244944 25 Z M 20.8541661717374 29.166666666666668 L 25.020832644244944 29.166666666666668 L 25.020832644244944 33.333333333333336 L 20.8541661717374 33.333333333333336 L 20.8541661717374 29.166666666666668 Z M 29.18749911675249 29.166666666666668 L 33.354165589260035 29.166666666666668 L 33.354165589260035 33.333333333333336 L 29.18749911675249 33.333333333333336 L 29.18749911675249 29.166666666666668 Z M 33.354165589260035 33.333333333333336 L 37.52083206176758 33.333333333333336 L 37.52083206176758 37.5 L 33.354165589260035 37.5 L 33.354165589260035 33.333333333333336 Z M 25.020832644244944 33.333333333333336 L 29.18749911675249 33.333333333333336 L 29.18749911675249 37.5 L 25.020832644244944 37.5 L 25.020832644244944 33.333333333333336 Z M 29.18749911675249 20.833333333333336 L 33.354165589260035 20.833333333333336 L 33.354165589260035 25 L 29.18749911675249 25 L 29.18749911675249 20.833333333333336 Z M 33.354165589260035 25 L 37.52083206176758 25 L 37.52083206176758 29.166666666666668 L 33.354165589260035 29.166666666666668 L 33.354165589260035 25 Z" fill="rgb(0,0,0)"/>
        </svg>