<svg 
          width="16.66666603088379" 
          height="18.33179473876953" fill="none" 
          xmlns="http://www.w3.org/2000/svg">
          <path d="M 2.0833332538604736 0 C 0.9333333017031349 0 0 0.9333333373069763 0 2.0833333333333335 L 0 4.019999901453654 C 0.0004438482404872546 4.465565482775371 0.11996010481668692 4.9029166748126345 0.3461782005496389 5.2867841720581055 C 0.5723962962825908 5.6706516693035764 0.8970952436839952 5.987085824211439 1.2866665428797432 6.2033335367838545 L 6.079999373881037 8.868333498636883 C 5.075995827795817 9.375194509824118 4.27220243806384 10.205751558144888 3.7984862468025313 11.225812435150146 C 3.3247700555412223 12.245873312155405 3.2088011520922497 13.39585542678833 3.4693168270371646 14.489959081013998 C 3.7298325019820795 15.584062735239666 4.3516161371250295 16.55838136871656 5.234206317868303 17.25549379984538 C 6.116796498611576 17.952606230974197 7.2086413931729 18.331794738769535 8.333333015441895 18.33179473876953 C 9.458024637710889 18.331794738769535 10.549869532272215 17.952606230974197 11.432459713015488 17.25549379984538 C 12.315049893758761 16.55838136871656 12.936832734173143 15.584062735239666 13.197348409118058 14.489959081013998 C 13.457864084062974 13.39585542678833 13.341895975342567 12.245873312155405 12.868179784081258 11.225812435150146 C 12.39446359281995 10.205751558144888 11.590670203087972 9.375194509824118 10.586666657002752 8.868333498636883 L 15.381666232490534 6.205000082651774 C 15.771173978236215 5.988398616512617 16.095696918095367 5.671608646710713 16.32162826582735 5.287437438964844 C 16.547559613559333 4.903266231218974 16.666684388718352 4.4656819601853694 16.66666603088379 4.019999901453654 L 16.66666603088379 2.0833333333333335 C 16.66666603088379 0.9333333373069763 15.733332729180654 0 14.583332777023315 0 L 2.0833332538604736 0 Z M 6.666666412353516 7.286667029062907 L 6.666666412353516 1.6666666666666667 L 9.999999618530275 1.6666666666666667 L 9.999999618530275 7.286667029062907 L 8.333333015441895 8.213333288828533 L 6.666666412353516 7.286667029062907 Z M 11.666666221618653 13.333333333333334 C 11.666666221618652 14.217388331890106 11.315476909762294 15.06523405512174 10.690355687827196 15.69035530090332 C 10.065234465892098 16.315476546684902 9.217387980274646 16.666666666666668 8.333333015441895 16.666666666666668 C 7.449278050609143 16.666666666666668 6.6014315649916915 16.315476546684902 5.976310343056594 15.69035530090332 C 5.351189121121496 15.06523405512174 4.999999809265139 14.217388331890106 4.999999809265137 13.333333333333334 C 4.999999809265138 12.449278334776562 5.351189121121496 11.60143181681633 5.976310343056594 10.97631057103475 C 6.6014315649916915 10.35118932525317 7.449278050609143 10.000000000000002 8.333333015441895 10 C 9.217387980274646 10.000000000000002 10.065234465892098 10.35118932525317 10.690355687827196 10.97631057103475 C 11.315476909762294 11.60143181681633 11.666666221618652 12.449278334776562 11.666666221618653 13.333333333333334 Z" fill="rgb(0,0,0)"/>
        </svg>