<svg 
          width="16.000001907348633" 
          height="18.000001907348633" fill="none" 
          xmlns="http://www.w3.org/2000/svg">
          <path d="M 13.610000610351562 18 C 12.947333931922913 18 12.385000348091125 17.76833364367485 11.92300033569336 17.30500030517578 C 11.461667001247406 16.84100031852722 11.230999946594238 16.277666449546814 11.230999946594238 15.614999771118164 C 11.230999946594238 15.514999769628048 11.274999916553497 15.262666463851929 11.36299991607666 14.857999801635742 L 4.165999889373779 10.585000038146973 C 3.9499998837709427 10.834333375096321 3.685666799545288 11.029999926686287 3.373000144958496 11.17199993133545 C 3.060333490371704 11.313999935984612 2.7246668338775635 11.385000228881836 2.366000175476074 11.385000228881836 C 1.7086668610572815 11.385000228881836 1.1500000655651093 11.15099960565567 0.690000057220459 10.682999610900879 C 0.23000004887580872 10.214999616146088 -4.440892098500626e-16 9.653999984264374 0 9 C 4.440892098500626e-16 8.346000015735626 0.23000004887580872 7.785000383853912 0.690000057220459 7.317000389099121 C 1.1500000655651093 6.84900039434433 1.7086668610572815 6.614999771118162 2.366000175476074 6.614999771118164 C 2.724000185728073 6.614999771118164 3.0596668124198914 6.6860000640153885 3.373000144958496 6.828000068664551 C 3.686333477497101 6.970000073313713 3.9506665617227554 7.1660003662109375 4.165999889373779 7.4160003662109375 L 11.36400032043457 3.1609997749328613 C 11.317333653569221 3.0316664427518845 11.28366620093584 2.9033333510160446 11.262999534606934 2.7760000228881836 C 11.241666201502085 2.64800001680851 11.230999946594238 2.5173331648111343 11.230999946594238 2.383999824523926 C 11.230999946594238 1.7219998240470886 11.463333785533905 1.1589999198913574 11.928000450134277 0.6949999332427979 C 12.39266711473465 0.23166659474372864 12.956667482852936 0 13.620000839233398 0 C 14.283334195613861 0 14.84600055217743 0.23233336210250854 15.308000564575195 0.6970000267028809 C 15.770000576972961 1.1616666913032532 16.000666666659527 1.725666582584381 16 2.3889999389648438 C 15.999333333340473 3.0523332953453064 15.767666965723038 3.6150001287460327 15.305000305175781 4.077000141143799 C 14.842333644628525 4.539000153541565 14.278999745845795 4.769666720065288 13.614999771118164 4.769000053405762 C 13.253666430711746 4.769000053405762 12.920333117246628 4.694999933242798 12.614999771118164 4.546999931335449 C 12.3096664249897 4.398999929428101 12.049666702747345 4.199999809265137 11.835000038146973 3.9499998092651367 L 4.636000156402588 8.222999572753906 C 4.682666823267937 8.352332904934883 4.716333322227001 8.481000199913979 4.736999988555908 8.609000205993652 C 4.758333321660757 8.736333534121513 4.769000053405762 8.866666659712791 4.769000053405762 9 C 4.769000053405762 9.133333340287209 4.758333321660757 9.263666465878487 4.736999988555908 9.390999794006348 C 4.715666655451059 9.518333122134209 4.682333417236805 9.647000432014465 4.63700008392334 9.777000427246094 L 11.835000038146973 14.049999237060547 C 12.050333365797997 13.799999237060547 12.310333102941513 13.600999116897583 12.614999771118164 13.452999114990234 C 12.920333117246628 13.304999113082886 13.253666430711746 13.231000900268555 13.614999771118164 13.231000900268555 C 14.277666449546814 13.231000900268555 14.841000318527222 13.463000059127808 15.305000305175781 13.927000045776367 C 15.76833364367485 14.392333388328552 16 14.956667482852936 16 15.620000839233398 C 16 16.28333419561386 15.767666161060333 16.84600055217743 15.302999496459961 17.308000564575195 C 14.838332831859589 17.77000057697296 14.273333966732025 18.000666666659527 13.610000610351562 18 Z M 13.614999771118164 17 C 14.007666438817978 17 14.336665958166122 16.867332607507706 14.601999282836914 16.601999282836914 C 14.867332607507706 16.336665958166122 15 16.00799921154976 15 15.615999221801758 C 15 15.223999232053757 14.867332607507706 14.894999712705612 14.601999282836914 14.628999710083008 C 14.336665958166122 14.362999707460403 14.007999211549759 14.230334233609028 13.615999221801758 14.231000900268555 C 13.223999232053757 14.231667566928081 12.894999712705612 14.364333033561707 12.628999710083008 14.628999710083008 C 12.362999707460403 14.893666386604309 12.230333279934712 15.22233310341835 12.230999946594238 15.614999771118164 C 12.231666613253765 16.007666438817978 12.364333033561707 16.336665958166122 12.628999710083008 16.601999282836914 C 12.893666386604309 16.867332607507706 13.221666425466537 17 13.614999771118164 17 Z M 2.366000175476074 10.383999824523926 C 2.76333349943161 10.383999824523926 3.096666842699051 10.251333385705948 3.366000175476074 9.986000061035156 C 3.634666830301285 9.720666736364365 3.7690000534057617 9.391999989748001 3.7690000534057617 9 C 3.7690000534057617 8.608000010251999 3.634666830301285 8.279333263635635 3.366000175476074 8.013999938964844 C 3.0973335206508636 7.748666614294052 2.764000177383423 7.616000175476074 2.366000175476074 7.616000175476074 C 1.9786668419837952 7.616000175476074 1.654333472251892 7.748666614294052 1.3930001258850098 8.013999938964844 C 1.1316667795181274 8.279333263635635 1.0006666666595265 8.608000010251999 1 9 C 0.9993333333404735 9.391999989748001 1.1303334534168243 9.721000462770462 1.3930001258850098 9.987000465393066 C 1.6556667983531952 10.25300046801567 1.9800001680850983 10.385333157842979 2.366000175476074 10.383999824523926 Z M 13.615999221801758 3.7690000534057617 C 14.007999211549759 3.7690000534057617 14.336665958166122 3.6363331377506256 14.601999282836914 3.370999813079834 C 14.867332607507706 3.1056664884090424 15 2.7766664922237396 15 2.383999824523926 C 15 1.991333156824112 14.867332607507706 1.6626664400100708 14.601999282836914 1.3979997634887695 C 14.336665958166122 1.1333330869674683 14.007999211549759 1.0006666666595265 13.615999221801758 1 C 13.223999232053757 0.9993333333404735 12.894999712705612 1.1319997608661652 12.628999710083008 1.3979997634887695 C 12.362999707460403 1.663999766111374 12.230333279934712 1.9930002391338348 12.230999946594238 2.385000228881836 C 12.231666613253765 2.777000218629837 12.364333033561707 3.1056664884090424 12.628999710083008 3.370999813079834 C 12.893666386604309 3.6363331377506256 13.222665876150131 3.7690000534057626 13.615999221801758 3.7690000534057617 Z" fill="rgb(0,0,0)"/>
        </svg>