<svg 
          width="37.00154113769531" 
          height="36.72249984741211" fill="none" 
          xmlns="http://www.w3.org/2000/svg">
          <path d="M 20.3623337905599 8.001250157478376 C 20.200458794223163 7.971958491500021 19.41883416765896 7.840916681613303 18.501542449004127 7.840916681613303 C 17.584250730349293 7.840916681613303 16.802626103785094 7.971958491500021 16.640751107448356 8.001250157478376 C 16.548251108721196 8.016666823933909 16.51125094153018 7.927249874779914 16.582167608943948 7.87329154074976 C 16.646917608627273 7.827041541383161 18.501542449004127 6.414874708552402 18.501542449004127 6.414874708552402 L 20.419376469247197 7.87329154074976 C 20.491834800722 7.927249874779914 20.456375459091248 8.01820849086662 20.3623337905599 8.001250157478376 Z M 17.158750323845766 17.166458834795737 C 17.158750323845766 17.166458834795737 17.060083775122862 17.201916424766242 17.03541710707267 17.288249761511754 C 17.423917116658945 17.585791436451327 17.69062574008468 18.265666166113895 18.501542449004127 18.265666166113895 C 19.312459157923573 18.265666166113895 19.580709474126124 17.587333933270067 19.967667790935586 17.286708941694542 C 19.943001122885395 17.20037560494903 19.84433457416249 17.166458834795737 19.84433457416249 17.166458834795737 C 19.84433457416249 17.166458834795737 19.33558413606853 17.285166651629414 18.501542449004127 17.285166651629414 C 17.66595911510816 17.285166651629414 17.158750323845766 17.166458834795737 17.158750323845766 17.166458834795737 Z M 18.501542449004127 16.022541264315926 C 18.276459117045093 16.022541264315926 18.22712597046886 15.937750596683838 18.07295930018044 15.937750596683838 C 17.92804263723084 15.937750596683838 17.64283391872328 16.054917122761516 17.581167252905175 16.162833790821825 C 17.58461944526712 16.217806630373772 17.60758006433999 16.26974094416284 17.64591697117386 16.309291066844487 C 17.97275030345572 16.3570827331438 18.12229243527036 16.54054195099507 18.501542449004127 16.54054195099507 C 18.880792462737894 16.54054195099507 19.03033374456546 16.3570827331438 19.358708746651505 16.309291066844487 C 19.395417781782314 16.26881975343854 19.41765084314563 16.21730649338307 19.421917645103083 16.162833790821825 C 19.360250979284977 16.054917122761516 19.07658393058161 15.939292263437075 18.930125597827818 15.937750596683838 C 18.775958927539396 15.937750596683838 18.72662578096316 16.022541264315926 18.501542449004127 16.022541264315926 Z M 36.981498718089526 19.5221253336627 C 36.958101890530386 19.96172697985824 36.9190211243978 20.400352978724985 36.86433172108071 20.83716652947182 C 34.76766501434722 21.184041523285522 34.01995738766035 19.317082887873433 31.873957430973825 19.41112455641092 C 32.00140187443033 19.866430104390922 32.105722896137145 20.330471589823368 32.18691734310165 20.803249380270234 C 33.95675069458065 20.803249380270234 34.66899851444116 22.457457680324087 36.639248526957424 22.213874333671512 C 36.53647074293637 22.719541018682882 36.412111683651744 23.21801364279971 36.26616723700391 23.7092914249528 C 34.70908390499569 23.863458095251286 34.161791652879145 22.315625591752124 32.35958325848481 22.35879226012488 C 32.37499992493934 22.61470891926652 32.382707317724815 22.873708481536884 32.382707317724815 23.13579181989568 L 32.375000278143425 23.567458078629688 L 35.874581406765905 24.9025416940459 C 35.6915330370721 25.398225487590064 35.487332899773804 25.88583918220728 35.2625407228476 26.3640416361256 C 34.211124075817736 26.306999968230024 33.848832475875284 24.958040991472167 32.24858248124028 25.064415989728186 C 32.20079193773107 25.40830780457267 32.14011028345743 25.750286068780312 32.066665765962775 26.089625743374324 C 33.45570747984907 25.992500740971415 33.754790457011424 27.272083519795572 34.74916543614944 27.375375189929326 C 34.496179693274605 27.837484264200867 34.223571975753025 28.288577230281398 33.93208397771363 28.72741811507029 C 33.34316730709009 28.411376448424495 32.831333161825775 27.458626341440603 31.71208313530211 27.40004300948389 C 31.827297413350788 27.04453685635447 31.9281005223266 26.684519867751998 32.014248487222645 26.32087515727699 C 31.02141515491619 26.32087515727699 29.886748016843413 25.93545802782146 28.93708134716374 25.069041389675657 C 29.245414687740585 23.311541396515427 26.519749710311935 21.52475057300603 26.519749710311935 20.239000575108058 C 26.519749710311935 18.84225053508226 27.22583333199904 18.069875088792006 27.22583333199904 16.18750014012847 C 27.22583333199904 14.78920845327101 26.54749981273257 13.27374967750659 25.523833176232845 12.237749682505722 C 25.333776284040315 12.043386537528152 25.121039669095474 11.8725777175478 24.890206312395815 11.728999795721519 C 25.830623009195605 12.891416484947852 26.552124569446278 14.271208777387308 26.552124569446278 15.868375478463454 C 26.552124569446278 17.64129212372133 25.727333130933243 18.577082685511076 25.727333130933243 20.214332755553492 C 25.727333130933243 21.85004108687375 28.121540708545044 23.26683189247773 28.121540708545044 24.953415212476404 C 28.121540708545044 25.616331895908523 27.908792159322186 26.263831927243 27.208875492523315 27.538790305428822 C 28.283417209588638 28.611790283842133 29.683248429704996 29.19762398245752 30.5851234043727 29.19762398245752 C 30.87804006988028 29.19762398245752 31.036831829985456 29.108209132427017 31.141665169916653 28.878500791040423 C 31.232219398902348 28.679625661958617 31.318062511338677 28.47863787851031 31.399123223174286 28.27570796648127 C 32.37037322416735 28.31270796712318 32.817458110615455 29.19608330047605 33.3554997925639 29.54912497350691 C 33.05949978744794 29.946874955999032 32.749110764611515 30.330236541030597 32.4243329767535 30.699208763751404 C 32.063582977697365 30.299917088482367 31.577957609638855 29.627750443656073 30.867249277183287 29.441208776385388 C 30.740958541861847 29.68823094102577 30.60728698970193 29.931409050596166 30.466415587546773 30.17041645736011 C 31.076915589483704 30.336916463120282 31.494708519925993 30.95358297201955 31.818458512599474 31.359041326505743 C 31.469454576851845 31.72109989217697 31.105831989037203 32.06877846836791 30.72849904075158 32.401208919628715 C 30.492624043135848 32.032750594500214 30.124165947757636 31.567166520358526 29.710999267249594 31.31587484765713 C 29.55949196531277 31.52113843366535 29.401653350851415 31.72165066083032 29.237708819763004 31.91712391190324 C 29.58766715316244 32.15608224914295 29.89754218651609 32.58312538221923 30.099500517357548 32.93154204583722 C 29.66372275629682 33.282014276851804 29.211498847980764 33.613473307746574 28.74283219235768 33.92591776016411 C 28.511582181181893 32.04508436644175 25.946249186387305 30.75779079201172 26.63845752713786 28.576332498604323 C 26.411832525374635 28.961749168607383 26.140499260098316 29.441207949370938 26.140499260098316 30.02087460120719 C 26.140499260098316 31.599541356522362 27.820915165646174 32.85137475656172 27.956581832743268 34.420791447105906 C 27.60713737396348 34.628402559585396 27.251014107266695 34.82522111047517 26.888208540814105 35.01124889163986 C 26.826541874996 33.28612394139708 25.047458148616197 31.399126441391413 25.047458148616197 29.98541810243631 C 25.047458148616197 28.405209792179967 27.11637337457162 26.817290215378964 27.11637337457162 24.953415212476404 C 27.11637337457162 23.087998470851684 24.728332016724096 21.794541617152806 24.728332016724096 20.15729154711039 C 24.728332016724096 18.520041477067974 25.74429097040897 17.578083409046613 25.74429097040897 15.478333408512924 C 25.74429097040897 13.94129176088618 25.01354191832177 12.385749891826977 23.885041918918223 11.39291655945571 C 23.693616639422107 11.220087779645509 23.481264080800358 11.071958372288531 23.252958815394138 10.95199950082676 C 24.316708820857517 12.228499525844246 24.93337573173744 13.387833288969228 24.93337573173744 15.143791727188287 C 24.93337573173744 17.11712503349651 23.76941721197444 18.211707699991155 23.76941721197444 20.14495763733311 C 23.76941721197444 22.078207574675066 26.11274980091114 23.151209023336293 26.11274980091114 24.954958972789452 C 26.11274980091114 26.75562562857928 23.932833797711183 28.272623753912992 23.932833797711183 30.12416539838124 C 23.932833797711183 31.807665424716586 25.853749540864236 33.488083995198494 25.88304120684068 35.48454227965318 C 25.4613667529794 35.66797223612501 25.033000925175955 35.83561678394347 24.59883405043464 35.987125946672705 C 24.843959043902878 33.96908423901272 22.679459210374457 31.887832346430113 22.679459210374457 30.241332395397706 C 22.679459210374457 28.442207294549046 24.94108277131883 26.89437347586718 24.94108277131883 24.953415212476404 C 24.94108277131883 23.012456949085628 22.642458951292948 22.109040878870353 22.642458951292948 20.115665888078993 C 22.642458951292948 18.122290897287634 24.053083904602136 17.021541643466332 24.053083904602136 14.8200416655758 C 24.048497905935147 14.005335484487361 23.858423241187655 13.202373046473193 23.497278733264647 12.472070444307395 C 23.13613422534164 11.741767842141597 22.613405749765292 11.103307813906932 21.96875018874018 10.605124644848798 L 21.890125740877906 10.546541881464526 C 21.772959076972136 10.460208544719016 21.67737630146588 10.563499583105619 21.760626304340533 10.666791253239372 C 22.636293007200152 11.76137456296748 23.104959249316007 12.866749308626751 23.104959249316007 14.505540933610337 C 23.104959249316007 16.51741587016267 21.483125831477114 18.153124201482925 21.483125831477114 20.104874268366842 C 21.483125831477114 22.406582668673042 23.65995872479493 23.064873492705217 23.65995872479493 24.953415212476404 C 23.65995872479493 26.84195693224759 21.325875465504648 28.352791962093445 21.325875465504648 30.356958572596955 C 21.325875465504648 32.21620854311403 23.535084251724875 34.28050075840991 23.155834237991108 36.42650071523653 C 22.71053161363525 36.54188504813971 22.261080960452805 36.64061947810053 21.808418183133494 36.72249984741211 C 22.2231265104731 34.050791429200494 20.055543038692196 32.131417140357975 20.055543038692196 30.38316721196873 C 20.055543038692196 28.49000045981205 22.472876145791922 26.803415302003483 22.472876145791922 24.953415212476404 C 22.472876145791922 23.20979013269166 20.73850149845336 22.639374372640837 20.51033482688595 20.854124368948654 C 20.479501493976894 20.61054102229608 20.28370904405352 20.430167056524308 20.013917379663518 20.474875388958196 C 19.660875706655705 20.53962538864575 19.209166844563104 20.770874521133777 18.500000158939102 20.770874521133777 C 17.7908334733151 20.770874521133777 17.339126081470415 20.53962538864575 16.986084408462602 20.474875388958196 C 16.717834413876787 20.430167056524308 16.52204258421425 20.61054102229608 16.491209251305197 20.854124368948654 C 16.263042579737785 22.639374372640837 14.527125642334195 23.208250599341376 14.527125642334195 24.954958972789452 C 14.527125642334195 26.80341732359437 16.94445874943392 28.490001378717 16.94445874943392 30.381626392151517 C 16.94445874943392 32.13141805926293 14.778416924484583 34.050791429200494 15.191583604992625 36.72249984741211 C 14.738920827673315 36.64061947810053 14.289470174490868 36.54188504813971 13.84416755013501 36.42650071523653 C 13.464917536401241 34.28050075840991 15.67412632262147 32.21775028183619 15.67412632262147 30.356958572596955 C 15.67412632262147 28.352791962093445 13.340043063331187 26.84195693224759 13.340043063331187 24.953415212476404 C 13.340043063331187 23.064873492705217 15.516875956649004 22.406582668673042 15.516875956649004 20.104874268366842 C 15.516875956649004 18.153124201482925 13.89658335862722 16.518958527789778 13.89658335862722 14.504000113793126 C 13.89658335862722 12.866750043750711 14.363709424159428 11.759833008026309 15.240917773850612 10.6652496982982 C 15.322626106921076 10.563499697968735 15.227042711153981 10.460208544719016 15.10987604724821 10.546541881464526 L 15.032792419203048 10.605124644848798 C 14.388828701713424 11.10314415693565 13.86664224222076 11.741179651084227 13.505787051520686 12.470903067461148 C 13.144931860820613 13.200626483838068 12.95487165410922 14.002901397169962 12.950000993406121 14.816958555693459 C 12.950000993406121 17.01845853358399 14.36062594671531 18.120750077470426 14.36062594671531 20.11412506826178 C 14.36062594671531 22.105958504111967 12.060458366376482 23.009374390546256 12.060458366376482 24.951874392659192 C 12.060458366376482 26.8912911011088 14.32208339756877 28.439124919790665 14.32208339756877 30.239791575580494 C 14.32208339756877 31.8862915266129 12.15912585410538 33.967540478699675 12.404250847573616 35.98558218635966 C 11.970083972832299 35.834073023630424 11.541715939656982 35.666431416307795 11.120041485795703 35.48300145983597 C 11.149333151772145 33.48500143665912 13.070251100297074 31.804583785082162 13.070251100297074 30.121083758746817 C 13.070251100297074 28.27108366921974 10.8903336268492 26.75254104844902 10.8903336268492 24.951874392659192 C 10.8903336268492 23.151207736869363 13.232125395968792 22.075124464792726 13.232125395968792 20.14187452745077 C 13.232125395968792 18.210166145049985 12.069708431146859 17.114041923614167 12.069708431146859 15.140708617305945 C 12.069708431146859 13.383208624145716 12.686376077150742 12.226957970903076 13.75012608261412 10.95045794588559 C 13.521904552421303 11.069936735457153 13.309555818741398 11.217545663565133 13.118042979090033 11.389833449573368 C 12.542945122693983 11.905604780957583 12.080856976512804 12.53485618703443 11.760874034674396 13.237969632303432 C 11.440891092835988 13.941083077572435 11.269942644542017 14.702829917888359 11.258791722227413 15.475250298630584 C 11.25879172222741 17.575000299164273 12.274749940788325 18.516958367185634 12.274749940788325 20.15420843722805 C 12.274749940788325 21.791458507270466 9.886708582940804 23.08337527627609 9.886708582940804 24.95033357284198 C 9.886708582940804 26.8157503144667 11.955625279144144 28.403666766990877 11.955625279144144 29.98233352230605 C 11.955625279144144 31.39758350809282 10.17499988870331 33.284583856703826 10.114874886946236 35.008167252005435 C 9.752351722956845 34.823153666232116 9.396033051122828 34.62622794805276 9.046500124769153 34.41770980747148 C 9.180625122062061 32.84983485564945 10.862583432538067 31.59645971688794 10.862583432538067 30.017792961572766 C 10.862583432538067 29.43966795656818 10.591250167261745 28.95866667898588 10.364625165498522 28.57479167878711 C 11.05529185941751 30.754708417253337 8.48995822138946 32.04354152503365 8.25870821021367 33.922833180033855 C 7.791643619422496 33.612115418931936 7.33895345873573 33.28031352162835 6.902041355461721 32.92845746570696 C 7.103999686303177 32.581582471893256 7.413874604793714 32.15299975952144 7.765374607997337 31.915583092086024 C 7.600882926443843 31.7196261753936 7.442529127923288 31.51859720203099 7.290541870445717 31.312790267526875 C 6.877375189937675 31.56408194022827 6.508916359435505 32.03120766120161 6.273041361819775 32.39812433949845 C 5.895739150904668 32.06619689680631 5.532118446845169 31.71903513573089 5.183083360219796 31.35750050668853 C 5.506833352893276 30.950500505370673 5.926166368028716 30.33383482348586 6.536666369965649 30.167334817725685 C 6.395274729774078 29.928346524184665 6.261089429343945 29.68516526736482 6.134291492950044 29.43812419625513 C 5.425124807326042 29.626207533330106 4.9379581599979465 30.298376268665155 4.577208160941816 30.697667943934192 C 4.252128719561931 30.326850077652217 3.9420061332152345 29.94318206079304 3.6475832676344635 29.547584153689698 C 4.187166596414471 29.19300081085455 4.631166718951529 28.309626327488758 5.6039583667761566 28.272626326846847 C 5.685152813740662 28.47509855529379 5.77097234477876 28.675514274466572 5.861416787595772 28.87387539109295 C 5.966250127526971 29.105125402283836 6.123499597567112 29.194542342823098 6.416416263074694 29.194542342823098 C 7.319832976464457 29.194542342823098 8.718124663230634 28.60870864420771 9.792666380295955 27.5357086657944 C 9.094291360328649 26.262292026330737 8.883083539032407 25.61479190310577 8.883083539032407 24.95033357284198 C 8.883083539032407 23.263750252843305 11.275750296827098 21.84849971571357 11.275750296827098 20.211249645671153 C 11.275750296827098 18.573999575628736 10.450958123190105 17.639749833656197 10.450958123190105 15.866833188398324 C 10.450958123190105 14.268124932381006 11.172458213192861 12.889875021897176 12.112874909992652 11.725916685839177 C 11.881501397991828 11.869393045696054 11.668244211907526 12.040205518323576 11.477707961462466 12.234666572623382 C 10.455582971794303 13.273749953178076 9.775708540820228 14.789207810037544 9.775708540820228 16.18595785006334 C 9.775708540820228 18.068332798726875 10.483332982324448 18.84225053508226 10.483332982324448 20.239000575108058 C 10.483332982324448 21.52475057300603 7.757666534647879 23.31154213163939 8.065999875224723 25.067500569858446 C 7.114791558713485 25.93391720800425 5.980124880093181 26.32087515727699 4.987291547786728 26.32087515727699 C 5.072931249126467 26.684497722142748 5.173221201377122 27.044514481018982 5.287916447452134 27.40004300948389 C 4.170208067760032 27.458626341440603 3.6599167179584655 28.41137435791574 3.0679167077265466 28.725874354757245 C 2.776466522625767 28.287537075825238 2.5038573808015196 27.836961223504325 2.2508334114808406 27.375375189929326 C 3.2467501293409184 27.270541849991282 3.5458331983937708 25.992500740971415 4.936416559111629 26.089625743374324 C 4.862972041616971 25.750286068780312 4.8022903873433345 25.40830780457267 4.754499843834128 25.064415989728186 C 3.1542498491991187 24.956499321667877 2.790416694315601 26.306999968230024 1.7390000472857297 26.3640416361256 C 1.5147293029723723 25.885813728540217 1.3110426382728166 25.398200355539732 1.1284999994035496 24.9025416940459 L 4.626541594675845 23.565917258812476 L 4.618833084846537 23.13424952983055 C 4.618833084846537 22.872166191471756 4.626027803331959 22.61265213432087 4.640416691831412 22.355707679994623 C 2.8397500361591352 22.31408267855458 2.2909166426087495 23.860375605629784 0.7338333106005213 23.707750605135587 C 0.5892717354955195 23.214654585761416 0.4653170518196583 22.71574934119495 0.3622916688603191 22.2123335138543 C 2.3294583877134603 22.454375190702585 3.0447915458006016 20.800166893699785 4.814624897279605 20.801708560453022 C 4.894439407453958 20.332115510775775 4.998382443353487 19.866943588476 5.1260414166564585 19.40804144652858 C 2.9800414599699354 19.31554144779538 2.2307917499716385 21.180958413403182 0.13720833690128453 20.83408341958948 C 0.08255543134010154 20.39778165295357 0.04347505430633555 19.95966968951487 0.02004166725235792 19.520583043597572 C 2.455875087673829 19.79191637780948 3.3669998686698936 17.7908325785442 5.585458237235401 18.03595757202844 C 5.79136154188252 17.507561175834095 6.033463843468959 16.99399572172338 6.310041620901286 16.498916291963674 C 3.530416638187628 16.01020795182686 2.586916647724709 18.335041376224776 0 17.978916363585338 C 0.280583330046699 8.001249422354418 8.456042680273745 0 18.501542449004127 0 C 28.547042217734507 0 36.7224994774528 8.001250157478376 37.00154113769531 17.980458653650466 C 34.413082751248545 18.33812531312157 33.47112376438373 16.013291888723653 30.691498781670067 16.500458582028802 C 30.965915455472636 16.994819703790466 31.20744511846799 17.50716650615882 31.416084003145848 18.03749986209357 C 33.633000632989294 17.79237486860933 34.54566529766805 19.795000337678896 36.981498718089526 19.5221253336627 Z M 10.546541880776024 11.759833099916804 C 9.183708530588309 11.203291426227015 7.534124734657292 11.331249675393652 6.125041428179666 12.237749682505722 C 5.906124752464762 10.925791320907459 5.195416442981819 9.760291659634529 4.18254142619354 9.058833300013053 C 4.04224976117019 8.961708297610143 3.897333386814173 9.052666264720228 3.9096667208392675 9.216082930871824 C 4.123958387141607 11.984916294054791 2.5036666620795245 14.389915859097025 0.5133749650814282 16.505082511728357 C 2.5653332704660716 17.1217491929223 4.312041414073882 14.479333121253015 6.972958028618645 15.401249780462729 C 7.928828409384484 13.976988001958057 9.140503917187168 12.742313130236232 10.546541880776024 11.759833099916804 Z M 18.501542449004127 10.084041583411272 C 16.78412582492228 10.084041583411272 15.344209375059751 11.055291860139226 14.96804270093436 12.311750200673577 C 14.937209368025307 12.407333533272197 14.977292811649987 12.470541397959831 15.088292807825315 12.4196663977951 C 15.396626148402158 12.280916391080568 15.74966789032784 12.214624153016288 16.13200122069736 12.214624153016288 C 16.831917887496232 12.214624153016288 17.450126238454107 12.472083630593403 17.815501246922803 12.919166954932281 C 17.975834584941666 13.452583604530357 17.98970940642575 14.22495859136814 17.807792737093497 14.664333589658197 C 17.519501058025856 14.599583589970642 17.414668154574503 14.37758378712964 17.132543154723617 14.37758378712964 C 16.851959824676918 14.37758378712964 16.633041954385583 14.574916051830721 16.15512527993737 14.574916051830721 C 15.677208605489156 14.574916051830721 15.621709779005302 14.349832857692734 15.307209782184328 14.349832857692734 C 14.937209787275691 14.349832857692734 14.869375833466302 14.730625414215252 14.869375833466302 15.15920874684791 C 14.869375833466302 17.073958738428892 16.629959120174924 19.70712515883442 18.501542449004127 19.70712515883442 C 20.37312577783333 19.70712515883442 22.130625954659816 17.073958738428892 22.130625954659816 15.15920874684791 C 22.130625954659816 14.72908372143834 22.042750706903202 14.362166778956327 21.657334036925306 14.311291778791595 C 21.429733525669093 14.497897677518162 21.140239643257747 14.592009972515656 20.84641732800586 14.574916051830721 C 20.368500653557646 14.574916051830721 20.237458881009996 14.37758378712964 19.95533388115911 14.37758378712964 C 19.616167213416368 14.37758378712964 19.650083811272772 15.094458439901512 19.246167149589862 15.133000107476134 C 18.97637548519986 14.48704176891857 18.964041988930607 13.6576252979662 19.187583651085454 12.919166954932281 C 19.55295865955415 12.472083630593403 20.169625317735214 12.214624153016288 20.871083677310896 12.214624153016288 C 21.25341700768042 12.214624153016288 21.606459599593176 12.282458060884858 21.91325127036583 12.4196663977951 C 22.02425126654116 12.470541397959831 22.062792196117726 12.407333533272197 22.035042197073896 12.311750200673577 C 21.658875522948506 11.056833506970891 20.218959073085973 10.084041583411272 18.501542449004127 10.084041583411272 Z M 21.236459397930926 12.831291707169934 C 20.824834410199696 12.831291707169934 20.342292060132827 12.957707827079807 20.03858372896855 13.295332825040399 C 20.004292447619527 13.400268048564579 20.008667644107195 13.514008449029047 20.050917638745027 13.615999776770543 C 20.798626000555867 13.360083117628905 21.456916847517693 13.349290831710665 21.77604185375123 13.705415844350103 C 21.9456251876226 13.551249174051618 21.99958422805741 13.412499684221121 21.99958422805741 13.25216634619179 C 21.99958422805741 13.003958013098973 21.746751069349223 12.831291707169934 21.236459397930926 12.831291707169934 Z M 15.227043044257025 13.705415844350103 C 15.587793043313155 13.344665845270422 16.34783462572176 13.360082750066926 17.135626264605758 13.651457745789342 C 17.171084598312643 13.259874396569128 16.468083859653014 12.829749417104804 15.766625500077332 12.829749417104804 C 15.256333828659033 12.829749417104804 15.003500669950844 13.002416343294685 15.003500669950844 13.25216634619179 C 15.003500669950844 13.412499684221121 15.057459710385654 13.552790843855906 15.227043044257025 13.705415844350103 Z M 27.067040675961547 7.225791417524788 C 25.710374004990584 7.322916419927697 24.53408368893249 7.788499770431733 23.57979198686763 8.563958142823342 C 23.96965188388672 7.4607449372738195 24.497492710114898 6.411276828118057 25.150748945783505 5.440541781394582 C 23.424082256931282 5.624000120543001 21.979542451685095 6.256083247080975 20.926584065933163 7.33524990471144 L 20.1002503373551 5.172291740846007 L 21.931751399906588 3.556625277789877 L 19.48050114360749 3.3824167047683313 L 18.501542449004127 1.1022917276674253 L 17.522583754400767 3.3839586272714812 L 15.071333498101671 3.556625277789877 L 16.90129227058813 5.173833663349157 L 16.078043122140123 7.33524990471144 C 15.023543089556627 6.256083247080975 13.580541990646168 5.624000120543001 11.853875301793945 5.440541781394582 C 12.506056970016148 6.411436533798061 13.032860168776844 7.4608979349477025 13.421750621075601 8.563958142823342 C 12.4690006577328 7.788499770431733 11.291166397580767 7.322916419927697 9.934499726609806 7.225791417524788 C 10.748499729192382 8.272583124128301 11.46999977324989 9.387207842668062 12.003416422813144 10.586624515306836 C 12.065083088631251 10.72229118241279 12.19458343258726 10.766999669911886 12.333333439292733 10.696083002493488 C 14.249394524328782 9.743991158812419 16.360430331517975 9.250008948583003 18.500000158939102 9.253083189955753 C 20.716916788782548 9.253083189955749 22.808957728006884 9.774166343283774 24.66820769840258 10.696083002493488 C 24.808499363425927 10.766999669911886 24.938000448249053 10.722291802673627 24.998125450006125 10.588166805371964 C 25.53308379234619 9.387208485901523 26.25458149319608 8.272582940347313 27.06858149577866 7.227332972465958 L 27.067040675961547 7.225791417524788 Z M 30.030125399141696 15.402792070527859 C 32.691042013686456 14.480875411318145 34.43928992037069 17.121749790210515 36.489706670814265 16.506624801793485 C 34.499414973816165 14.391458149162153 32.88066549287387 11.98645803277695 33.094957159176204 9.216082930871824 C 33.1072904932013 9.054207934524516 32.960832092965425 8.961708297610143 32.822082086259954 9.058833300013053 C 31.809207069471675 9.761833306466194 31.096956722622565 10.927332967739124 30.879581716711847 12.237749682505722 C 29.47049841023422 11.332791322225317 27.820914981865183 11.204832981168186 26.45808163167747 11.761374654857976 C 27.86356604692554 12.744001985640606 29.07471162224461 13.978668679108392 30.030125399141696 15.402792070527859 Z" fill="rgb(0,112.000000923872,74.0000031888485)"/>
        </svg>