<svg 
          width="14.002044677734375" 
          height="11.059999465942383" fill="none" 
          xmlns="http://www.w3.org/2000/svg">
          <path d="M 1.3830444812774658 5.078000068664551 C 1.2943426743149757 5.211899548768997 1.2479989691637456 5.369398072361946 1.2500444650650024 5.529999732971191 C 1.2477973878849298 5.690941020846367 1.294149674475193 5.848817616701126 1.3830444812774658 5.982999801635742 C 1.8830444812774658 6.6539998054504395 2.6900444626808167 7.626000165939331 3.68904447555542 8.425000190734863 C 4.697044491767883 9.232000172138214 5.8330442905426025 9.809999465942383 7.001044273376465 9.809999465942383 C 8.169044256210327 9.809999465942383 9.305044531822205 9.232000172138214 10.313044548034668 8.425000190734863 C 11.312044560909271 7.625000178813934 12.119044721126556 6.6539998054504395 12.620044708251953 5.982999801635742 C 12.70823397487402 5.848591551184654 12.753883854253218 5.690732002258301 12.751044273376465 5.529999732971191 C 12.753385953139514 5.36950246989727 12.707393236458302 5.212012469768524 12.619044303894043 5.078000068664551 C 12.119044303894043 4.406000077724457 11.311044156551361 3.435000002384186 10.312044143676758 2.634999990463257 C 9.305044174194336 1.8299999833106995 8.169044256210327 1.25 7.001044273376465 1.25 C 5.8330442905426025 1.25 4.697044491767883 1.8299999833106995 3.68904447555542 2.634999990463257 C 2.6900444626808167 3.435000002384186 1.8830444812774658 4.406000077724457 1.3830444812774658 5.078000068664551 Z M 2.9080445766448975 1.6600000858306885 C 4.018044590950012 0.7700001001358032 5.4270442724227905 0 7.001044273376465 0 C 8.57604432106018 0 9.985044121742249 0.7710000872612 11.095044136047363 1.6600000858306885 C 12.2120441198349 2.5540000796318054 13.094043850898743 3.621000051498413 13.625043869018555 4.335000038146973 L 13.631044387817383 4.3420000076293945 C 13.878044381737709 4.684000015258789 14.002044677734375 5.107999742031097 14.002044677734375 5.529999732971191 C 14.002044677734375 5.9529997408390045 13.878044381737709 6.375999450683594 13.631044387817383 6.717999458312988 L 13.626044273376465 6.72499942779541 C 13.094044268131256 7.43899941444397 12.2120441198349 8.507000029087067 11.095044136047363 9.401000022888184 C 9.985044121742249 10.289000034332275 8.57504427433014 11.059999465942383 7.001044273376465 11.059999465942383 C 5.4270442724227905 11.059999465942383 4.018044590950012 10.289999604225159 2.9080445766448975 9.399999618530273 C 1.7900445461273193 8.506999611854553 0.9080444872379303 7.4399994015693665 0.3770444691181183 6.72499942779541 L 0.37204447388648987 6.717999458312988 C 0.1272953301668167 6.370430499315262 -0.002762077550869435 5.955086141824722 0.0000444849138148129 5.529999732971191 C 0.00004448491381459172 5.107999742031097 0.12504447996616364 4.684000015258789 0.37204447388648987 4.3420000076293945 L 0.3770444691181183 4.335000038146973 C 0.909044474363327 3.621000051498413 1.7900444269180298 2.5540000796318054 2.9070444107055664 1.6600000858306885 M 7.001044273376465 3.0299999713897705 C 6.338003039360046 3.0299999713897714 5.702118277549744 3.293392062187195 5.233277320861816 3.762233018875122 C 4.764436364173889 4.231073975563049 4.501044273376465 4.866958498954773 4.501044273376465 5.529999732971191 C 4.501044273376465 6.19304096698761 4.764436364173889 6.828925728797913 5.233277320861816 7.29776668548584 C 5.702118277549744 7.766607642173767 6.338003039360046 8.029999732971191 7.001044273376465 8.029999732971191 C 7.664085507392883 8.029999732971193 8.299970269203186 7.766607642173767 8.768811225891113 7.29776668548584 C 9.23765218257904 6.828925728797913 9.501044273376467 6.19304096698761 9.501044273376465 5.529999732971191 C 9.501044273376467 4.866958498954773 9.23765218257904 4.231073975563049 8.768811225891113 3.762233018875122 C 8.299970269203186 3.293392062187195 7.664085507392883 3.0299999713897705 7.001044273376465 3.0299999713897705 Z" fill="rgb(0,0,0)"/>
        </svg>